<svg width="41" height="62" viewBox="0 0 41 62" fill="none" xmlns="http://www.w3.org/2000/svg">
<path fill-rule="evenodd" clip-rule="evenodd" d="M30.7572 0C30.7572 0 12.2774 15.0638 8.85346 37.7064C8.85346 37.7064 2.73261 67.2004 25.1288 50.9165C25.1288 50.9165 14.8571 64.1266 6.53176 60.959C6.53176 60.959 0.78613 59.035 4.8198 39.9354C4.8198 39.9354 12.2774 12.2481 30.7572 0Z" fill="#33585C"/>
<path fill-rule="evenodd" clip-rule="evenodd" d="M13.7315 36.744C13.7315 36.744 34.2516 34.7965 35.4476 26.0915C35.4945 25.7864 35.5179 25.4579 35.4945 25.1294C35.26 15.5797 21.6581 13.1394 21.6581 13.1394C21.6581 13.1394 11.3863 10.6992 0.246826 12.5998C0.246826 12.5998 23.6984 6.61649 36.3388 15.9316C48.9791 25.2468 30.6635 34.0222 30.6635 34.0222C30.6635 34.0222 24.144 37.3541 13.7315 36.744Z" fill="#901D77"/>
</svg>
