<?xml version="1.0" encoding="utf-8"?>
<!-- Generator: Adobe Illustrator 25.2.0, SVG Export Plug-In . SVG Version: 6.00 Build 0)  -->
<svg version="1.1" id="Layer_1" xmlns="http://www.w3.org/2000/svg" xmlns:xlink="http://www.w3.org/1999/xlink" x="0px" y="0px"
	 viewBox="0 0 512 512" style="enable-background:new 0 0 512 512;" xml:space="preserve">
<g>
	<g>
		<path d="M263.4,340c53.4-0.1,95.5-42.4,95.4-95.9c-0.1-52.3-43-94.3-96.1-94.2c-53.4,0.1-95.5,42.5-95.4,95.9
			C167.5,298.2,210.3,340.2,263.4,340z M262.9,176.8c37.2-0.2,68.7,30.8,68.8,67.8c0.2,37.1-30.8,68.4-67.9,68.7
			c-37.7,0.3-69.3-30.9-69.3-68.3C194.5,207.9,225.6,176.9,262.9,176.8z"/>
		<path d="M277,82c0-4.7,0.3-9.5-0.1-14.2c-0.7-8.1-7-14.1-14.3-13.5c-8,0.7-12.9,5.5-13.3,13.5c-0.5,9.1-0.5,18.3,0,27.4
			c0.4,8.3,6.6,13.8,14.3,13.3c8.1-0.5,12.6-5.4,13.4-13.3C277.3,90.8,277,86.4,277,82z"/>
		<path d="M277,407.9c0-4.4,0.4-8.9-0.1-13.2c-0.9-7.9-5.4-12.9-13.5-13.1c-8.2-0.2-13.4,4.6-14,12.5c-0.7,9.7-0.7,19.6,0.1,29.3
			c0.6,7.5,5.8,12.2,13.3,12.3c8,0.1,13-4.8,14-12.6C277.4,418,276.9,412.9,277,407.9C276.9,407.9,276.9,407.9,277,407.9z"/>
		<path d="M340.8,129.3c2-1.4,6.6-3.4,9.1-6.9c5.3-7.4,9.7-15.5,14-23.5c4-7.5,1.9-14.8-4.9-18.8c-6.7-3.9-14.4-2.3-18.9,4.8
			c-5,8-9.7,16.3-13.8,24.8C321.9,118.9,328.4,129.2,340.8,129.3z"/>
		<path d="M349.1,411.5c12.4,0.5,19.7-9.7,15.4-18.8c-4.3-9-9.5-17.7-15.1-26c-4.4-6.5-11.1-8.4-18.1-3.8
			c-6.6,4.3-8.7,10.6-4.8,17.9c4.3,8,8.5,16.1,13.7,23.6C342.7,408,347.2,410,349.1,411.5z"/>
		<path d="M419.6,141.9c-4.1,1.1-6,1.3-7.6,2.2c-8.9,4.8-18,9.4-26.4,14.9c-6.7,4.4-8.1,11.3-3.8,18.3c4,6.5,10.3,8.7,17.2,5.2
			c9-4.5,18.2-9.1,26-15.4c3.5-2.8,5.8-10.2,4.8-14.6C428.7,148.1,422.7,144.9,419.6,141.9z"/>
		<path d="M202.7,117.5c-1.8-4.6-2.4-7.4-3.8-9.8c-4.3-7.7-8.4-15.5-13.2-22.8c-4.6-7-12.4-8.6-18.9-4.3c-6.7,4.5-8.6,10.8-4.7,18
			c4.5,8.3,9.2,16.4,14.3,24.3c3.6,5.5,9.4,8.5,15.4,5.3C196.3,125.9,199.3,121,202.7,117.5z"/>
		<path d="M393.4,303.3c-5,4.9-10.8,8-12,12.4c-1.1,4.4,0.8,12,4.2,14.7c8.3,6.5,17.9,11.9,27.7,15.7c3.9,1.5,11.5-1.4,14.4-4.8
			c2.6-3,3.2-12.2,0.9-14.1C418.1,318.6,406.2,311.7,393.4,303.3z"/>
		<path d="M184.9,360.8c-2.1,1.7-6.7,4.1-9.4,7.8c-4.9,6.9-8.9,14.4-13,21.9c-4.1,7.5-2.2,14.9,4.3,18.9c6.6,4.1,14.4,2.6,18.9-4.5
			c5.1-7.9,9.8-16.1,13.9-24.6C204.1,371.3,197.2,360.8,184.9,360.8z"/>
		<path d="M146.5,322.1c-0.3-11.7-9.4-18.8-17.7-14.9c-9.9,4.6-19.5,10.2-28.5,16.5c-5.7,4-6.8,10.6-2.7,16.8
			c3.8,5.8,9.6,9,16.2,5.7c9.3-4.5,18.4-9.6,26.9-15.4C144,328.6,145.4,323.9,146.5,322.1z"/>
		<path d="M109.3,140.1c-5,4.6-10.9,7.5-12.2,11.9c-1.3,4.3,0.5,12,3.8,14.6c8.3,6.5,17.8,12,27.6,15.9c3.9,1.5,11.9-0.9,14.5-4.2
			c2.7-3.4,3.3-13,0.9-15C133.7,154.8,122,148.3,109.3,140.1z"/>
		<path d="M99.4,258.3c4.4,0,8.8,0.2,13.2,0c8.1-0.5,12.8-4.8,13.2-13.1c0.3-7.5-4.8-13.2-12.7-13.5c-9.4-0.4-18.9-0.3-28.3,0
			c-8.2,0.3-12.8,5-13.3,13c-0.5,7.5,5.4,13.1,13.8,13.6C90,258.5,94.7,258.3,99.4,258.3z"/>
		<path d="M427.8,231.7c-5,0-10.1-0.3-15.1,0.1c-7.6,0.7-12,5.1-12.3,12.9c-0.3,7.5,4.7,13.3,12.5,13.6c9.7,0.4,19.5,0.5,29.2,0
			c7.6-0.4,12-5.3,12.5-12.8c0.5-7.2-5-13-12.7-13.6C437.2,231.4,432.5,231.7,427.8,231.7z"/>
	</g>
</g>
<g>
</g>
<g>
</g>
<g>
</g>
<g>
</g>
<g>
</g>
<g>
</g>
</svg>
