<svg width="34" height="34" viewBox="0 0 34 34" fill="none" xmlns="http://www.w3.org/2000/svg">
<path d="M30.7649 9.93654C30.7147 9.53548 30.6646 9.11772 30.5978 8.71667C30.414 7.63049 29.4782 6.89524 28.4087 7.01221C25.852 7.29629 23.312 7.61378 20.772 7.93128C17.7976 8.2822 14.8064 8.64983 11.8319 9.00075C10.0105 9.21799 8.18907 9.41851 6.36763 9.65246C6.06684 9.68588 5.71592 9.78614 5.49869 9.98667C5.04751 10.4044 4.54619 10.4211 3.99475 10.4044C3.40988 10.3877 2.82502 10.3877 2.24015 10.4044C0.836477 10.4211 0.0176652 11.2734 0.000954761 12.6938C0.000954761 13.5961 0.0176652 14.4818 0.000954761 15.3841C-0.0157557 15.9356 0.18477 16.2197 0.769635 16.3032C2.07305 16.5037 2.90857 17.4395 2.89186 18.6093C2.87515 19.779 2.03963 20.6981 0.736214 20.8819C0.21819 20.9487 0.000954761 21.1994 0.000954761 21.7007C0.000954761 22.6866 0.000954761 23.6558 0.000954761 24.6417C0.0176652 25.8115 0.803056 26.6637 1.95608 26.7639C2.19002 26.7807 2.40726 26.7807 2.6412 26.7807C9.60946 26.7807 16.5944 26.7807 23.5627 26.7807C25.5679 26.7807 26.2531 26.1122 26.3032 24.0903C26.3032 24.0067 26.3199 23.9232 26.3366 23.7561C27.5899 23.6057 28.8097 23.4386 30.0296 23.3049C31.4667 23.1378 32.2521 22.1853 32.0683 20.7816C31.968 19.9127 31.8176 19.0437 31.7508 18.1748C31.7007 17.5231 31.4333 17.2557 30.7649 17.2557C29.779 17.2724 28.91 16.6207 28.6092 15.7351C28.2917 14.816 28.5591 13.8134 29.3445 13.2118C29.6119 12.9945 29.9628 12.8609 30.297 12.7606C30.8317 12.6102 31.0657 12.3261 30.9821 11.758C30.9153 11.1564 30.8484 10.5381 30.7649 9.93654ZM19.0843 11.6577C19.0843 11.9752 19.0843 12.2092 19.0843 12.4431C19.0843 14.5653 19.0843 16.7043 19.0843 18.8265C19.0843 19.0604 19.0676 19.3278 19.1678 19.4949C19.3015 19.6787 19.5856 19.896 19.7861 19.8792C19.9866 19.8625 20.2039 19.5952 20.3041 19.3946C20.3877 19.2275 20.3376 18.9936 20.3376 18.7764C20.3376 16.604 20.3543 14.4316 20.3208 12.2593C20.3208 11.7914 20.4545 11.641 20.9224 11.6577C21.9418 11.6911 22.9611 11.6577 23.9971 11.6744C24.7324 11.6911 25.0165 11.9752 25.0332 12.7105C25.0499 13.3622 25.0165 13.9972 25.0499 14.6489C25.0666 14.9831 24.9329 15.1001 24.6154 15.217C23.0279 15.7852 22.1423 17.0218 22.159 18.6093C22.159 20.18 23.0614 21.4166 24.6321 22.0182C24.7992 22.085 25.0165 22.3357 25.0165 22.5028C25.0666 23.1879 25.0499 23.873 25.0332 24.5749C25.0165 25.2099 24.699 25.5107 24.0473 25.5274C22.9444 25.5441 21.8415 25.5274 20.7219 25.5274C20.6049 25.5274 20.488 25.4772 20.3376 25.4438C20.3376 25.1096 20.3376 24.7921 20.3376 24.4913C20.3376 24.0736 20.1872 23.7728 19.7527 23.7394C19.2848 23.7059 19.0843 24.0234 19.0676 24.4579C19.0509 24.8088 19.0676 25.143 19.0676 25.5107C18.8336 25.5274 18.7166 25.5274 18.5997 25.5274C13.1855 25.5274 7.78802 25.5274 2.37384 25.5274C2.25686 25.5274 2.12318 25.5441 2.00621 25.5107C1.57174 25.4104 1.28766 25.1597 1.27095 24.6919C1.25424 23.8396 1.27095 22.9874 1.27095 22.1519C3.22607 21.3999 4.12843 20.2803 4.14514 18.6761C4.16185 16.9382 3.30962 15.852 1.27095 15.0165C1.27095 14.3481 1.27095 13.663 1.27095 12.9778C1.27095 11.8749 1.48818 11.6577 2.59107 11.6577C7.85486 11.6577 13.1186 11.6577 18.3824 11.6577C18.583 11.6577 18.7835 11.6577 19.0843 11.6577ZM11.7484 10.3877C11.7484 10.3543 11.7651 10.3209 11.7651 10.2707C14.1046 9.98667 16.444 9.7193 18.7835 9.43522C21.9919 9.05088 25.2003 8.64983 28.4087 8.2822C28.8933 8.23207 29.2944 8.41589 29.3612 8.95062C29.4949 9.80285 29.5951 10.6718 29.6954 11.524C28.0745 12.2426 27.122 13.3956 27.239 15.1335C27.3727 17.1387 28.6259 18.1915 30.5309 18.5591C30.6312 19.4114 30.7482 20.2135 30.8317 21.0156C30.8818 21.5837 30.5978 21.9012 30.0129 22.0015C29.8291 22.0349 29.6453 22.0516 29.4615 22.0683C28.4421 22.1853 27.4061 22.3023 26.3533 22.4192C26.3366 22.1853 26.3199 22.0349 26.3366 21.8845C26.37 21.2328 26.1361 20.9153 25.4342 20.815C24.2478 20.6646 23.4791 19.7289 23.4624 18.5925C23.4457 17.3894 24.1977 16.4703 25.4844 16.2865C26.1528 16.1862 26.37 15.8687 26.3533 15.2337C26.3366 14.4651 26.3533 13.6964 26.3533 12.911C26.3533 11.1397 25.5679 10.3376 23.7966 10.3376C20.0368 10.3376 16.2769 10.3376 12.5171 10.3376C12.233 10.3877 11.999 10.3877 11.7484 10.3877Z" fill="black"/>
<path d="M7.68747 20.1308C7.55379 20.8995 7.38669 21.5679 7.31984 22.253C7.28642 22.604 7.30313 23.1387 7.50366 23.2557C7.75432 23.4061 8.2055 23.239 8.57313 23.1554C8.75694 23.122 8.92405 23.0217 9.07444 22.9047C10.1272 22.0358 11.1632 22.1194 12.216 22.9215C12.4499 23.0886 12.7173 23.239 12.9847 23.3225C13.2186 23.3893 13.5695 23.4228 13.7367 23.3058C13.9038 23.1888 13.9873 22.8379 13.9706 22.604C13.887 21.8854 13.7199 21.1669 13.6364 20.4483C13.603 20.1809 13.7032 19.8634 13.8703 19.6796C14.3215 19.1616 14.873 18.7271 15.3241 18.2091C15.508 18.0086 15.7252 17.6075 15.6416 17.4237C15.5414 17.1898 15.1738 16.9893 14.8897 16.9224C14.2881 16.772 13.6531 16.6885 13.0348 16.655C12.5669 16.6383 12.333 16.4211 12.1492 16.02C11.9152 15.4686 11.6478 14.9172 11.3304 14.3991C11.1632 14.1318 10.8625 13.8143 10.5951 13.7808C10.3779 13.7641 10.0604 14.1151 9.90996 14.3657C9.57575 14.9339 9.34181 15.5689 9.0076 16.137C8.89063 16.3543 8.60655 16.5548 8.3726 16.6049C7.72089 16.7386 7.05248 16.772 6.40077 16.9057C6.09998 16.9725 5.71564 17.1564 5.61538 17.3903C5.53183 17.6075 5.74906 18.0086 5.93288 18.2258C6.38406 18.7438 6.90208 19.195 7.38669 19.6963C7.53708 19.83 7.62063 20.0138 7.68747 20.1308ZM10.545 15.6858C10.8625 16.3041 11.0964 16.7219 11.2802 17.1564C11.464 17.5574 11.7147 17.7746 12.1659 17.8248C12.6338 17.8582 13.1184 17.9752 13.603 18.0587C13.1184 18.6269 12.4834 19.0613 12.2996 19.6295C12.1157 20.1977 12.3831 20.9162 12.4667 21.5846C11.8484 21.3005 11.2468 20.8327 10.6452 20.8327C10.0269 20.8327 9.42536 21.2838 8.58984 21.6348C9.40865 20.0306 8.82378 18.9444 7.53708 18.042C9.22483 18.1423 10.194 17.4237 10.545 15.6858Z" fill="black"/>
<path d="M20.4373 21.6352C20.1866 21.4848 19.9026 21.184 19.702 21.2174C19.4681 21.2675 19.301 21.6185 19.1005 21.8524C19.3177 22.0362 19.5015 22.337 19.7355 22.3871C20.1198 22.4874 20.3203 22.1866 20.4373 21.6352Z" fill="black"/>
</svg>
