<?xml version="1.0" encoding="utf-8"?>
<!-- Generator: Adobe Illustrator 25.2.0, SVG Export Plug-In . SVG Version: 6.00 Build 0)  -->
<svg version="1.1" id="Layer_1" xmlns="http://www.w3.org/2000/svg" xmlns:xlink="http://www.w3.org/1999/xlink" x="0px" y="0px"
	 viewBox="0 0 215.3 201.4" style="enable-background:new 0 0 215.3 201.4;" xml:space="preserve">
<g>
	<g>
		<path d="M150.3,133.1c-0.5-13.1-1.1-26.3-1.4-39.4c0-1.7,0.9-3.9,2.2-5C167.8,74,171.6,45.2,159,27c-11.9-17.3-32.6-16.8-43.7,1.1
			c-11.9,19.1-8.4,44.7,8.3,60c1.9,1.8,2.7,3.5,2.6,6.1c-1.1,26-2.2,52-3.1,78c-0.3,10.3,10.2,17.6,19.7,13.9
			c5.7-2.2,9-7.5,8.9-14.3c-0.2-6.5-0.6-13-0.7-19.5c-0.1-6.4,0-12.8,0-19.1C150.8,133.1,150.6,133.1,150.3,133.1z"/>
		<path d="M87.3,132.9c-0.5-13.4-1.1-26.8-1.5-40.2c0-1.4,0.7-3.2,1.7-4.2c3.2-3.3,6.9-6.2,10-9.6c1.4-1.5,2.5-3.9,2.5-5.9
			c-0.6-18-1.6-36-2.4-54c-0.1-2.8-1.2-4.8-4.1-4.7c-3,0.1-3.9,2.3-3.7,5c0,0.6,0.1,1.2,0.1,1.9c0.5,10.5,1.1,21,1.4,31.5
			c0,1.5-1,3.8-2.2,4.3c-2.5,1.2-4.2-0.5-4.2-3.8c0-10.8,0-21.5,0-32.3c0-1.1,0.4-2.6-0.2-3.3c-1-1.3-2.5-3-3.9-3.1
			c-1.1-0.1-2.7,1.8-3.5,3.1C76.7,18.5,77,20,77,21.3c0,9.9,0,19.8,0,29.7c0,0.8,0.2,1.6-0.1,2.2c-0.7,1.4-1.6,2.6-2.4,4
			c-0.8-1.3-2.3-2.6-2.4-3.9c-0.2-8.4-0.1-16.8-0.1-25.2c0-2.9,0-5.8,0-8.6c0.1-2.9-0.8-5.2-4-5.1c-3,0.1-3.8,2.3-3.8,5
			c0,8.9,0,17.8,0,26.7c0,2.4,0,4.8,0,7.1c0,2.4-0.5,4.3-3.5,4.1c-2.8-0.1-3.1-1.9-3-4.2c0.5-10.3,0.9-20.5,1.4-30.8
			c0.1-1.3,0.1-2.5,0.1-3.8c0-2.6-1.3-4.1-3.8-4.2c-2.5-0.1-3.9,1.4-4,4c-0.4,8.6-0.8,17.3-1.3,25.9c-0.4,9.2-0.8,18.5-1.3,27.7
			c-0.2,3,0.4,5.4,2.8,7.3c0.8,0.6,1.4,1.5,2.2,2c8.6,5.2,9.9,12.9,9.2,22.4c-1.5,21-2,42-2.9,63c-0.1,1.8-0.2,3.5-0.1,5.3
			c0.1,8.7,6.2,15,14.5,15c8.4,0,14.4-6.1,14.2-15C88.4,158.9,87.8,145.9,87.3,132.9C87.3,132.9,87.3,132.9,87.3,132.9z"/>
	</g>
</g>
<g>
</g>
<g>
</g>
<g>
</g>
<g>
</g>
<g>
</g>
<g>
</g>
</svg>
