<?xml version="1.0" encoding="utf-8"?>
<!-- Generator: Adobe Illustrator 25.2.0, SVG Export Plug-In . SVG Version: 6.00 Build 0)  -->
<svg version="1.1" id="Layer_1" xmlns="http://www.w3.org/2000/svg" xmlns:xlink="http://www.w3.org/1999/xlink" x="0px" y="0px"
	 viewBox="0 0 215.3 201.4" style="enable-background:new 0 0 215.3 201.4;" xml:space="preserve">
<g>
	<path d="M117,151c-6.4,0-12.2,0-18.5,0c4,13.6,1.6,25.2-11.1,32.5c-9.1,5.3-18.8,4.7-27.3-1.7c-10.6-8-12.3-18.8-8.2-30.4
		c-3.7-2.5-7.6-4.3-10.4-7.2c-9.9-10.1-7.8-25.6,4.2-33.1c2-1.3,4.1-2.1,3.4-5.2c-0.4-1.6-0.1-3.3-0.3-5C47,77,45,53.1,43,28.6
		c-4.6,0-9,0-13.4,0c-5.3-0.1-8.4-2.7-8.4-7.1c0-4.4,3-7,8.4-7c6.2-0.1,12.3,0,18.5,0c6.4,0,8.7,2.2,9.1,8.5c0.4,5,1,10,1.1,14.9
		c0.1,4,1.6,5.3,5.7,5.3c37.3-0.2,74.7-0.1,112-0.1c3.5,0,7-0.1,10.5,0.1c6.4,0.3,9.4,4.8,6.8,10.7C184,75,174.5,96,165.1,117.2
		c-2,4.5-5.6,5.1-9.9,5.1c-31.2-0.1-62.3,0-93.5,0c-1.7,0-3.3-0.1-5,0.1c-4.1,0.4-6.5,2.7-6.6,6.8c-0.1,4.4,2.4,6.7,6.6,7.4
		c1.5,0.3,3,0.1,4.5,0.1c34.2,0,68.3,0,102.5,0c5.8,0,8.9,2.6,8.9,7.1c-0.1,5.7-4.2,6.9-9.1,7.4c4.1,13,1.7,24-9.9,31.8
		c-8.2,5.5-19.9,5.2-27.8-0.7C115.1,174.4,113,163.8,117,151z M63.8,107.6c29.6,0,58.4,0,87.2-0.1c1.4,0,3.4-1.8,4.1-3.2
		c6.5-14,12.7-28.2,19-42.3c0.6-1.3,0.9-2.6,1.5-4.1c-38.7,0-76.7,0-115.4,0C61.3,74.4,62.5,90.8,63.8,107.6z M75.4,150.8
		c-5.6-0.1-11,5-11.1,10.7c-0.1,5.6,5,10.9,10.7,11.1c5.6,0.1,11-5,11.1-10.7C86.2,156.2,81.1,150.9,75.4,150.8z M140.3,150.8
		c-5.7-0.1-11,5.1-11,10.8c-0.1,5.6,5.1,10.9,10.8,11c5.6,0.1,11-5.1,11-10.8C151.2,156.1,146,150.9,140.3,150.8z"/>
</g>
<g>
</g>
<g>
</g>
<g>
</g>
<g>
</g>
<g>
</g>
<g>
</g>
</svg>
