<svg width="24" height="24" viewBox="0 0 24 24" fill="none" xmlns="http://www.w3.org/2000/svg">
<path d="M12.0386 23.9509C14.4705 23.9509 16.9024 23.9509 19.3343 23.9509C21.9897 23.9509 23.817 21.6767 23.2648 19.0607C22.9362 17.5096 22.6076 15.9452 22.2658 14.3941C21.9503 13.0006 21.0958 12.0542 19.7813 11.5546C19.4921 11.4363 19.4001 11.2917 19.3475 11.0025C19.032 9.35933 18.1249 8.24196 16.5212 7.71613C16.3766 7.66355 16.2188 7.51895 16.1531 7.37435C15.7325 6.44102 15.062 5.73116 14.1156 5.32365C13.8132 5.19219 13.8001 4.99501 13.7869 4.74524C13.6686 2.72083 12.3541 1.02506 10.4479 0.433507C7.4902 -0.473535 4.58504 1.59031 4.30898 4.78468C4.29584 4.95557 4.19067 5.21848 4.05922 5.28421C2.41603 6.0598 1.75875 7.41379 1.62729 9.16214C1.40382 11.9753 1.11462 14.7884 0.864853 17.6016C0.78598 18.5743 0.654525 19.5734 0.746543 20.5462C0.917435 22.4786 2.6395 23.9377 4.58504 23.9377C7.06955 23.9509 9.55405 23.9509 12.0386 23.9509ZM9.06767 22.3603C7.59537 22.3603 6.10992 22.3734 4.63762 22.3603C3.19161 22.3471 2.16626 21.164 2.29772 19.718C2.37659 18.903 2.44232 18.0748 2.52119 17.2598C2.7841 14.4072 3.03387 11.5678 3.30992 8.71519C3.44138 7.41379 4.38786 6.55933 5.68927 6.55933C7.93715 6.54618 10.185 6.54618 12.4329 6.55933C13.7869 6.55933 14.7465 7.5058 14.8517 8.84665C15.0226 10.8448 15.2198 12.8429 15.4038 14.841C15.5484 16.4974 15.7325 18.1405 15.8245 19.7969C15.9165 21.3218 14.8911 22.3471 13.3531 22.3603C11.9202 22.3603 10.4874 22.3603 9.06767 22.3603ZM16.8104 12.8823C17.3231 12.8823 17.7963 12.8823 18.2695 12.8823C19.5447 12.8955 20.4648 13.6316 20.7278 14.8673C21.0564 16.379 21.3719 17.8776 21.7005 19.3894C22.0029 20.8222 21.1616 22.1762 19.7287 22.3208C18.7428 22.426 17.7437 22.3471 16.6526 22.3471C17.3231 21.4269 17.494 20.441 17.3888 19.4025C17.2705 18.1405 17.1522 16.8786 17.047 15.6166C16.9813 14.7227 16.9024 13.8288 16.8104 12.8823ZM5.93903 4.95557C5.97847 3.1152 7.45077 1.73492 9.23856 1.82693C10.8818 1.91895 12.2752 3.4044 12.1437 4.95557C10.093 4.95557 8.02917 4.95557 5.93903 4.95557ZM16.508 9.51707C17.231 9.83256 17.7174 10.5819 17.678 11.2654C17.3494 11.2654 17.0076 11.2654 16.6526 11.2654C16.6132 10.6607 16.5606 10.0955 16.508 9.51707Z" fill="black"/>
<path d="M8.64696 15.5376C7.6479 15.5376 6.64884 15.5376 5.64978 15.5376C5.09767 15.5376 4.76903 15.8268 4.74274 16.2869C4.72959 16.7732 5.07138 17.115 5.63663 17.115C7.63475 17.1282 9.63288 17.1282 11.631 17.115C12.1831 17.115 12.5643 16.7732 12.5643 16.3131C12.5643 15.8399 12.2225 15.5244 11.6441 15.5244C10.6451 15.5244 9.64602 15.5376 8.64696 15.5376Z" fill="black"/>
<path d="M6.72755 19.7046C7.24022 19.7046 7.73975 19.7178 8.25243 19.7046C8.72567 19.6915 9.02801 19.3891 9.04116 18.9422C9.05431 18.4952 8.7651 18.1403 8.30501 18.1271C7.25337 18.1008 6.21487 18.1008 5.16323 18.1271C4.68999 18.1403 4.36135 18.5215 4.38764 18.9685C4.41393 19.4023 4.72942 19.6915 5.20266 19.7046C5.71534 19.7178 6.22802 19.7046 6.72755 19.7046Z" fill="black"/>
<path d="M6.85893 8.80767C6.85893 8.37387 6.51715 8.03208 6.08335 8.01894C5.6364 8.00579 5.29462 8.33443 5.28147 8.76823C5.26832 9.21518 5.6364 9.60955 6.0702 9.5964C6.47771 9.60955 6.84579 9.22833 6.85893 8.80767Z" fill="black"/>
<path d="M12.9852 8.8213C12.9852 8.37435 12.6697 8.03257 12.2227 8.03257C11.7626 8.01942 11.3945 8.3875 11.4077 8.83445C11.4208 9.24196 11.8021 9.62318 12.2096 9.62318C12.6434 9.61003 12.9852 9.2551 12.9852 8.8213Z" fill="black"/>
<path d="M19.2686 14.4873C19.2817 14.0798 18.9268 13.6986 18.5193 13.6723C18.0723 13.646 17.7043 13.9878 17.6911 14.4348C17.678 14.8686 17.9935 15.2235 18.4273 15.2498C18.8611 15.2761 19.2554 14.9211 19.2686 14.4873Z" fill="black"/>
</svg>
