<?xml version="1.0" encoding="utf-8"?>
<!-- Generator: Adobe Illustrator 25.2.0, SVG Export Plug-In . SVG Version: 6.00 Build 0)  -->
<svg version="1.1" id="Layer_1" xmlns="http://www.w3.org/2000/svg" xmlns:xlink="http://www.w3.org/1999/xlink" x="0px" y="0px"
	 viewBox="0 0 192.2 191.6" style="enable-background:new 0 0 192.2 191.6;" xml:space="preserve">
<g>
	<g>
		<path d="M356.2,185c0-1.8,0-3.2,0-4.5c0-20.1,0-40.3,0-60.4c0-11.5-7.6-19.1-19-19.1c-11.3,0-22.5,0-33.8,0
			c-11.7,0-19.3,7.5-19.3,19.2c0,20.1,0,40.3,0,60.4c0,1.3,0,2.7,0,4.4c-10.5,0-20.7,0.2-30.9-0.1c-3.4-0.1-5.1-2.9-5.1-7.1
			c0-21.9,0-43.8,0-65.7c0-1.5,0-3,0-4.5c-0.1-4.1-2.5-6.7-6.1-6.6c-3.6,0-5.9,2.6-5.9,6.8c0,20.5,0,41,0,61.6c0,3.4-0.1,6.8,0,10.1
			c0.2,9.5,8,17.5,17.5,17.6c44.4,0.1,88.8,0.1,133.2,0c9.8,0,17.4-8.3,17.4-18.4c0-29.3,0-58.6,0-87.8c0-1.4,0-2.7,0-4.5
			c0.8,0.5,1.3,0.7,1.8,1c3.6,2.4,6.8,2.1,9-0.7c2.1-2.8,1.6-6.2-1.6-8.9c-6-5.1-12.1-10.1-18.2-15.1c-1.1-0.9-2-2-3.2-2.6
			c-7.6-4.2-10.3-10.5-8.9-18.9c0.5-2.9,0.2-6,0.1-9c-0.1-3.7-2.7-6.3-6.1-6.2c-3.3,0.1-5.7,2.5-5.8,6.1c-0.1,3.2,0,6.4,0,10.5
			c-6.5-5.4-12.4-10.3-18.3-15.2c-6.6-5.5-13.2-11.1-19.9-16.6c-8.6-7.1-17.2-7.1-25.7,0c-26.7,22.2-53.4,44.5-80.1,66.8
			c-3.4,2.8-4,6.2-1.8,9.1c2.4,3,6,3,9.5,0c26.7-22.2,53.4-44.5,80.1-66.7c4.1-3.4,6.1-3.4,10.2,0c21.7,18.1,43.5,36.1,65.1,54.3
			c1,0.8,1.7,2.5,1.8,3.7c0.1,33.4,0.1,66.8,0.1,100.2c0,4.1-2.1,6.7-5.9,6.8C376.5,185.1,366.6,185,356.2,185z M344.2,184.8
			c-16.3,0-32.1,0-48,0c0-22.1,0-44,0-65.9c0-3.8,2.6-5.9,6.7-5.9c11.5,0,23,0,34.5,0c4.4,0,6.7,2.3,6.8,6.7c0.1,6,0,12,0,18
			C344.2,153.3,344.2,168.9,344.2,184.8z"/>
		<path d="M320.2,149.1c0.1-3.2-2.5-6-5.8-6.1c-3.4-0.1-6.2,2.6-6.2,6c0,3.2,2.7,5.9,5.9,5.9C317.4,155,320.1,152.4,320.2,149.1z"/>
	</g>
</g>
<g>
	<g>
		<path d="M482.2,205.8c8.2,0,16.4,0.9,24.4-0.2c11-1.5,18.6-11.7,18.6-22.8c0-13,0-25.9,0-38.9c0-13.4-10.5-23.9-24.1-23.9
			c-12.9,0-25.7,0-38.6,0c-13.5,0-23.9,10.5-23.9,24c0,12.8,0,25.7,0,38.5c0,13.4,10.6,23.8,24.1,23.9c6.5,0,13,0,19.5,0
			C482.2,206.2,482.2,206,482.2,205.8z M482,131.5c6.4,0,12.8-0.1,19.1,0c7.3,0.1,12.6,5.2,12.6,12.4c0.1,12.8,0.1,25.7,0,38.5
			c0,7.2-5.4,12.4-12.6,12.4c-12.8,0.1-25.5,0.1-38.3,0c-7.4,0-12.6-5.3-12.7-12.8c-0.1-12.6-0.1-25.2,0-37.8
			c0-7.6,5.3-12.8,13-12.8C469.4,131.4,475.7,131.5,482,131.5z"/>
		<path d="M481.9,22.6c-8.2,0-16.4-0.9-24.4,0.2c-11.3,1.6-18.8,11.6-18.8,23c0,13,0,25.9,0,38.9c0.1,13.2,10.6,23.7,23.9,23.7
			c12.9,0,25.7,0,38.6,0c13.7,0,24.1-10.5,24.1-24.2c0-12.7,0-25.4,0-38.2c0-13.7-10.5-24-24.3-24.1c-6.4,0-12.7,0-19.1,0
			C481.9,22.2,481.9,22.4,481.9,22.6z M481.8,33.5c6.1,0,12.3,0,18.4,0c8.5,0,13.5,5,13.6,13.3c0,12.2,0,24.5,0,36.7
			c0,8.2-5.1,13.3-13.2,13.3c-12.4,0-24.8,0-37.2,0c-8,0-13.2-5.1-13.2-13c0-12.5,0-25,0-37.5c0-7.9,5.2-12.9,13.2-13
			C469.5,33.4,475.6,33.5,481.8,33.5z"/>
		<path d="M537.5,65.5c0,8.1-0.9,16.4,0.2,24.4c1.5,10.8,11.6,18.5,22.6,18.5c13.2,0.1,26.5,0.1,39.7,0
			c12.8-0.1,23.4-10.6,23.5-23.4c0.1-13.2,0.1-26.4,0-39.6c-0.1-12.8-10.6-23.4-23.4-23.4c-13.2-0.1-26.5-0.1-39.7,0
			C547.5,22,537,32.6,536.9,45.3c-0.1,6.7,0,13.4,0,20.2C537.1,65.5,537.3,65.5,537.5,65.5z M548.4,65.3c0-6.1,0-12.2,0-18.4
			c0-8.4,5-13.5,13.4-13.5c12.3,0,24.5,0,36.8,0c8.2,0,13.3,5.1,13.3,13.2c0,12.4,0,24.7,0,37.1c0,7.9-5.1,13.1-13,13.1
			c-12.5,0-25,0-37.5,0c-7.7,0-12.9-5.2-13-12.8C548.3,77.8,548.4,71.6,548.4,65.3z"/>
		<path d="M580.4,206.4c23.8,0,43.1-19.5,43.1-43.4c0-23.7-19.6-43-43.5-43c-23.8,0-43.1,19.5-43.1,43.4
			C536.9,187.1,556.4,206.4,580.4,206.4z M580.2,194.9c-17.4,0-31.7-14.2-31.8-31.6c-0.1-17.6,14.2-31.9,31.8-31.9
			c17.4,0,31.7,14.2,31.8,31.5C612,180.6,597.7,194.9,580.2,194.9z"/>
	</g>
</g>
<g>
	<g>
		<path d="M748.6,148.1c0.9-0.2,2-0.5,3.2-0.9c24.9-8.3,49.9-16.5,74.8-24.8c5.4-1.8,6.4-3.7,4.6-9.1C823,88.6,814.8,63.8,806.5,39
			c-1.6-5-3.7-6-8.7-4.3c-25.2,8.3-50.4,16.7-75.5,25c-4.8,1.6-5.9,3.7-4.3,8.4c8.3,25,16.7,50,24.9,75
			C743.8,145.9,745.2,147.9,748.6,148.1z M820.6,113.7c-23.3,7.7-46.1,15.2-69.1,22.8c-7.6-23-15.1-45.5-22.6-68.2
			c10.1-3.3,19.8-6.5,29.6-9.8c0.5,1.6,0.9,2.6,1.2,3.6c1.6,4.9,3.2,9.7,4.9,14.6c1.3,3.5,3.9,4.9,6.9,3.7c2.6-0.9,3.6-3.7,2.7-6.9
			c-0.3-1.1-0.7-2.3-1-3.4c-1.6-4.9-3.3-9.8-4.9-14.9c10.1-3.3,19.8-6.5,29.7-9.7C805.6,68.5,813,90.8,820.6,113.7z"/>
		<path d="M722,153c-4.2,3.1-7.7,7-9,12.3c-2.3,8.6-0.4,16.2,6.2,22.3c6.7,6.1,14.7,7.5,23.1,4.2c8.4-3.4,13-10,13.7-19
			c0.2-2.8,1.2-3.6,3.5-4.3c25.1-8.2,50.2-16.5,75.2-24.8c5.2-1.7,7.3-4.3,6-7.6c-1.2-3.3-4-4-9.2-2.3c-25.1,8.3-50.1,16.6-75.2,25
			c-2.5,0.8-4,0.6-5.7-1.6c-4.7-5.8-11.2-7.9-18.7-7.8c-4.7-14.1-9.4-28.1-14-42.1c-5.8-17.5-11.7-35.1-17.4-52.6
			c-1-3.1-2.7-5.1-5.6-6.5c-9.9-4.8-19.7-9.8-29.5-14.8c-2.7-1.4-5.3-1.7-7.5,0.9c-2.3,2.8-1.3,6.2,2.6,8.1
			c9.2,4.7,18.4,9.2,27.5,13.9c1.3,0.7,2.7,2.1,3.2,3.4c10.3,30.8,20.5,61.6,30.8,92.3C722.1,152.3,722,152.5,722,153z M722.3,171.6
			c-0.1-6.2,5.2-11.7,11.5-11.9c6.4-0.1,12.1,5.4,12,11.8c0,6.2-5.5,11.6-11.8,11.7C727.8,183.2,722.4,177.9,722.3,171.6z"/>
	</g>
</g>
<g>
	<g>
		<path d="M971.6,40.2c0-2.1,0-3.8,0-5.5c0-4.1-1.2-5.5-5.3-5.7c-3.4-0.2-6.8-0.2-10.2,0c-2,0.1-3-0.5-3.9-2.4
			c-3.8-7.7-10.4-10.8-18.7-10.9c-8.3-0.1-14.5,3.5-18.5,10.7c-1,1.9-2,2.6-4.1,2.5c-2.9-0.2-5.8-0.1-8.7,0
			c-5.1,0.1-6.2,1.2-6.2,6.3c0,1.4,0,2.9,0,5c-5.1,0-10,0-14.9,0c-4.9-0.1-9.4,0.9-13.3,4c-5,4-7.3,9.3-7.3,15.6
			c0,41.4-0.1,82.7,0,124.1c0,10.6,7.6,18.1,18.2,18.1c36.8,0.1,73.5,0.1,110.3,0c10.4,0,18-7.5,18-17.9c0.1-41.5,0.1-83,0-124.5
			c0-11.4-7.7-19.1-19.2-19.4C982.6,40.1,977.3,40.2,971.6,40.2z M971.6,49.2c5.1,0,9.7,0,14.3,0c8.8,0,12.1,3.3,12.1,12
			c0,40.4,0,80.7,0,121.1c0,8-3.1,11.1-11.2,11.1c-35.4,0-70.8,0-106.2,0c-7.9,0-11-3.1-11-10.9c0-40.4,0-80.7,0-121.1
			c0-1.2,0-2.4,0.1-3.6c0.4-4.1,3.8-8.1,7.9-8.3c6-0.3,12-0.1,18.5-0.1c0,3.4-0.1,6.5,0,9.6c0.1,3.9,1.7,5.7,5.5,5.7
			c21.5,0,42.9,0,64.4,0c3.9,0,5.6-1.9,5.7-5.9C971.7,55.7,971.6,52.6,971.6,49.2z M962.5,55.5c-19.3,0-38.3,0-57.3,0
			c0-5.9,0-11.5,0-17.6c3.6,0,7,0,10.3,0c3.2,0,5.1-1.2,6.1-4.5c1.7-5.7,6.6-9.5,11.9-9.6c5.2-0.1,10.2,3.7,11.9,9.5
			c0.9,3.2,2.8,4.6,6,4.5c3.6,0,7.2,0,11.1,0C962.5,44,962.5,49.7,962.5,55.5z"/>
		<path d="M954.9,124.4c-7.6,0-15.2,0-22.9,0c-1.1,0-2.2,0-3.2,0.2c-2.4,0.5-4.3,2.1-3.6,4.6c0.5,1.6,2.2,3.3,3.8,4
			c1.8,0.7,4,0.3,6.1,0.3c14,0,28.1,0,42.1,0c1.2,0,2.7,0.3,3.6-0.2c1.5-1,3.4-2.4,3.8-4c0.7-2.4-1.2-4-3.6-4.5
			c-1-0.2-2.2-0.2-3.2-0.2C970.2,124.4,962.5,124.4,954.9,124.4z"/>
		<path d="M955,159.9c-8.2,0-16.5-0.2-24.7,0.1c-1.7,0.1-3.9,1.7-4.9,3.2c-0.6,0.9,0.7,3.3,1.6,4.6c0.5,0.7,2.2,0.8,3.3,0.8
			c16.3,0.1,32.7,0.1,49,0c3.6,0,5.5-1.6,5.4-4.4c-0.2-3.4-2.4-4.4-5.5-4.4C971.2,159.9,963.1,159.9,955,159.9z"/>
		<path d="M954.6,89.1c-8,0-16,0-24,0c-3,0-5.3,0.8-5.5,4.3c-0.2,3,1.8,4.6,5.7,4.6c16.1,0,32.2,0,48.3,0c3.8,0,5.8-1.7,5.8-4.5
			c0-2.9-1.9-4.3-5.9-4.3C970.8,89.1,962.7,89.1,954.6,89.1z"/>
		<path d="M896.5,128.1c-2.1-2.1-3.9-4-5.8-5.9c-2-1.9-4.3-2.5-6.4-0.3c-2,2-1.8,4.4,0.2,6.5c2.8,3,5.7,5.9,8.6,8.9
			c2,2.1,4.3,2.2,6.4,0.3c5.8-5.3,11.5-10.8,17.1-16.2c1.9-1.9,2.1-4.2,0.3-6.2c-1.9-2.1-4.3-2.2-6.4-0.3c-3.5,3.2-6.8,6.5-10.3,9.8
			C899,125.8,897.8,126.9,896.5,128.1z"/>
		<path d="M896.4,92.7c-2-2-3.8-4-5.7-5.8c-2-2-4.3-2.5-6.4-0.5c-2.1,2-1.8,4.4,0.1,6.5c2.8,3,5.7,5.9,8.6,8.9
			c2.2,2.2,4.6,2.2,6.8,0.1c5.7-5.3,11.3-10.6,16.8-16c2.1-2,2.2-4.4,0.2-6.4c-2-2-4.4-1.8-6.4,0.2
			C905.6,83.9,901.1,88.2,896.4,92.7z"/>
		<path d="M896.5,163.6c-2.2-2.2-4.1-4.1-6-6c-1.9-1.8-4.2-2.2-6.1-0.3c-2.1,2-1.9,4.4,0,6.4c2.9,3.1,5.9,6.1,8.9,9.1
			c1.9,2,4.1,2.1,6.1,0.2c5.8-5.4,11.5-10.8,17.2-16.2c2-2,2.3-4.3,0.3-6.4c-2-2.1-4.4-1.9-6.4,0
			C905.7,154.8,901.2,159.2,896.5,163.6z"/>
	</g>
</g>
<g>
	<g>
		<path d="M1026.8,118.7c0,22.8,0.3,45.6-0.1,68.4c-0.2,13.2,9,19.3,19.2,19.2c36.6-0.4,73.3-0.1,109.9-0.2c11,0,17.8-6.4,17.8-17.4
			c0.1-46.8,0.1-93.6,0-140.4c0-10.9-6.8-17.4-17.8-17.4c-2.4,0-4.8-0.1-7.2,0c-6.5,0.3-12.5,0.2-17.8-5.1c-4-4-10-5-15.8-5
			c-9.8,0-19.5,0-29.3,0c-7.8,0-14.5,2.8-20.3,8.1c-1.3,1.1-3.3,1.9-5,2c-5.4,0.2-10.8,0.1-16.3,0.1c-10.2,0-17,6.5-17.2,16.8
			c-0.2,10.5-0.1,21-0.1,31.5C1026.8,92.4,1026.8,105.5,1026.8,118.7z M1143.1,41.8c4.2,0,8.1,0,11.9,0c6,0,7.7,1.7,7.7,7.8
			c0,46,0,91.9,0,137.9c0,6.3-1.6,7.8-8,7.8c-36.1,0-72.3,0-108.4,0c-7.3,0-8.7-1.3-8.7-8.6c0-45.5,0-91,0-136.4
			c0-1.2,0-2.4,0.1-3.6c0.4-2.9,2.2-4.7,5-4.8c4.8-0.2,9.6-0.1,14.4-0.1c-0.4,2.6-0.8,4.8-1,7.1c-0.3,4.2,1.9,6.6,6.2,6.6
			c25.2,0,50.4,0,75.5,0c4.2,0,6.5-2.4,6.2-6.6C1143.9,46.6,1143.5,44.4,1143.1,41.8z M1068.4,44.5c1.5-6.9,8.5-12.6,16.1-12.8
			c10.5-0.2,20.9-0.2,31.4,0c7.7,0.2,14.9,6.2,15.8,12.8C1110.7,44.5,1089.6,44.5,1068.4,44.5z"/>
		<path d="M1118.6,83.8c-4.1,4.1-8.1,8.1-12.4,12.3c-4.7-4.7-9.6-9.7-14.5-14.6c-4.1-4.1-6.5-4.1-10.6,0.1
			c-5.7,5.7-11.4,11.4-17.1,17.1c-2.9,3-3.2,6.2-0.9,8.6c2.5,2.5,5.3,2.2,8.5-0.9c4.9-4.8,9.7-9.7,14.8-14.8c5,5,9.9,9.9,14.8,14.8
			c4.4,4.4,6.5,4.4,10.8,0c4.8-4.8,9.7-9.7,14.7-14.7c0.5,1.2,0.7,2.5,1.5,3c1.6,1.1,3.7,2.6,5.2,2.3c1.7-0.4,4.1-2.5,4.2-4
			c0.5-5.4,0.4-10.8,0.1-16.2c-0.2-2.8-2.4-4-5.2-4c-4.3,0-8.7,0-13,0c-3,0-5.2,1.1-5.8,4.2c-0.6,3.2,0.8,5.3,3.9,6.4
			C1118,83.4,1118.3,83.6,1118.6,83.8z"/>
		<path d="M1118.3,164.3c-7,0-14-0.1-20.9,0c-4.5,0.1-7,3.2-5.9,7c0.7,2.5,2.6,3.7,5.1,3.8c14.6,0,29.1,0.1,43.7,0
			c3.2,0,5.3-2.3,5.4-5.1c0.1-3.1-2.1-5.6-5.8-5.6C1132.7,164.2,1125.5,164.3,1118.3,164.3C1118.3,164.3,1118.3,164.3,1118.3,164.3z
			"/>
		<path d="M1118.6,144c6.9,0,13.7,0,20.6,0c4,0,6.4-2,6.5-5.2c0.1-3.4-2.4-5.6-6.5-5.7c-13.8-0.1-27.7-0.1-41.5,0
			c-4.1,0-6.5,2.3-6.4,5.7c0.1,3.3,2.3,5.1,6.5,5.2C1104.7,144,1111.6,144,1118.6,144z"/>
		<path d="M1065.9,168.1c-4.7-3.9-8-4.3-10.3-1.7c-2.2,2.6-1.5,5.6,2.2,9.3c7.3,7.4,7.9,7.4,15.2,0.1c2.6-2.6,5.3-5.2,7.9-7.9
			c2.4-2.6,2.4-5.5,0.3-7.7c-2.2-2.4-5.3-2.4-8,0.2C1070.7,162.8,1068.4,165.4,1065.9,168.1z"/>
		<path d="M1065.6,136.9c-1-1-1.6-1.6-2.3-2.1c-2.4-1.9-5.5-1.9-7.5,0.2c-2,2-2,5.3,0,7.5c1.9,2.1,3.8,4,5.9,5.9
			c2.4,2.1,5.4,2.1,7.7-0.2c3.9-3.8,7.7-7.6,11.5-11.5c2.4-2.5,2.4-5.5,0.2-7.8c-2.3-2.3-5.3-2.3-8,0.3
			C1070.6,131.6,1068.3,134.2,1065.6,136.9z"/>
	</g>
</g>
<g>
	<g>
		<path d="M1209.7,71.7c0.3,4.7,1.8,8.9,5,12.3c1.9,2,3.2,4.1,1.8,7.1c-1.3,2.8-3.6,3.4-6.4,3.5c-9.5,0.3-16.8,7.9-16.9,17.5
			c-0.1,4.4-0.1,8.8,0,13.1c0.2,9.3,7.5,16.9,16.8,17.3c3,0.1,5.4,0.7,6.7,3.7c1.3,3-0.3,4.9-2.1,7c-6.7,7.7-6.4,17.4,0.6,24.6
			c2.7,2.8,5.4,5.5,8.2,8.2c7.6,7.5,17.1,7.9,25.1,0.9c2.5-2.2,5.2-3.6,7.9-1.2c1.5,1.3,2.4,3.8,2.5,5.8c0.6,9.6,8,16.9,17.5,17
			c4.4,0.1,8.7,0.1,13.1,0c9.4-0.1,17-7.4,17.4-16.7c0.1-2.9,0.6-5.4,3.6-6.8c2.9-1.3,4.9,0.2,7,1.9c7.9,6.8,17.4,6.5,24.9-0.8
			c2.9-2.8,5.7-5.6,8.5-8.5c6.9-7.1,7.2-16.8,0.8-24.4c-1.8-2.2-3.6-4.2-2.2-7.3c1.4-3.2,4-3.5,7.1-3.7c8.9-0.4,16.1-8,16.3-16.9
			c0.1-4.5,0.1-9,0-13.5c-0.1-9.6-7.4-17.1-17-17.5c-2.8-0.1-5.1-0.7-6.4-3.5c-1.3-2.9,0.1-4.9,1.9-7c6.8-7.8,6.5-17.5-0.6-24.9
			c-2.7-2.8-5.4-5.5-8.2-8.2c-7.4-7.3-16.9-7.6-24.9-1c-1.5,1.2-3.4,2.3-5.2,2.5c-3,0.3-5.2-2.4-5.5-5.9c-0.8-11.6-7.6-18-19.1-18
			c-3.7,0-7.5,0-11.2,0c-9.6,0.1-17.2,7.4-17.6,16.9c-0.1,3-0.8,5.4-3.8,6.6c-2.8,1.1-4.7-0.2-6.7-1.9c-8-7-17.6-6.6-25.1,0.8
			c-2.9,2.9-5.8,5.8-8.7,8.7C1211.4,63,1210,67.2,1209.7,71.7z M1360.9,118.4c0,1.9,0,3.8,0,5.6c-0.1,4.2-2.1,6.2-6.1,6.4
			c-7.7,0.3-13.3,3.9-16.4,11c-3,7.1-1.4,13.4,3.5,19.1c3.2,3.7,3.2,6-0.2,9.4c-2.6,2.7-5.2,5.4-8,7.9c-2.9,2.7-5.4,2.7-8.3,0.1
			c-5.8-5.2-12.3-7.1-19.6-4c-7.3,3.1-10.7,8.9-11,16.8c-0.1,3.5-2.2,5.6-5.7,5.7c-4.1,0.1-8.2,0.1-12.4,0c-3.7-0.1-5.8-2.2-5.9-5.9
			c-0.3-7.9-3.7-13.6-11.1-16.7c-7.2-3-13.6-1.2-19.3,3.9c-3.2,2.9-5.7,2.8-8.8-0.2c-2.7-2.6-5.4-5.2-7.9-8c-2.9-3.1-2.9-5.6,0-8.9
			c5.1-5.7,6.8-12.2,3.7-19.4c-3.1-7.1-8.7-10.6-16.4-10.9c-3.9-0.2-6-2.2-6-6.1c-0.1-4-0.1-8,0-12c0.1-3.6,2.2-5.8,5.9-5.9
			c7.7-0.3,13.4-3.7,16.5-10.8c3.2-7.3,1.4-13.9-3.8-19.7c-2.7-3.1-2.7-5.6,0.1-8.6c2.6-2.8,5.4-5.6,8.2-8.2c3-2.8,5.5-2.9,8.6-0.1
			c5.8,5.2,12.3,7,19.6,3.8c7.1-3.1,10.5-8.8,10.8-16.5c0.1-3.7,2.2-5.8,5.8-5.9c4.1-0.1,8.2-0.1,12.4,0c3.5,0.1,5.6,2.2,5.7,5.6
			c0.2,7.9,3.7,13.7,10.9,16.8c7.3,3.2,13.8,1.3,19.6-3.9c3-2.7,5.5-2.6,8.6,0.2c2.3,2.1,4.4,4.4,6.6,6.6c4.7,4.7,4.7,6.1,0.6,11.3
			c-4.4,5.5-5.6,11.6-2.9,18.2c2.7,6.4,7.7,10.1,14.5,11c7.3,1,8.1,1.7,8.1,9.1C1360.9,116.4,1360.9,117.4,1360.9,118.4z"/>
		<path d="M1325,118.2c-0.1-23.1-19-41.8-42.4-41.7c-22.9,0.1-41.5,19.1-41.4,42.3c0,23.2,19,41.8,42.4,41.7
			C1306.4,160.4,1325,141.4,1325,118.2z M1313,118.2c0.1,16.5-13.3,30.2-29.7,30.3c-16.6,0.1-30.1-13.3-30.2-29.8
			c-0.1-16.6,13.3-30.2,29.7-30.3C1299.3,88.4,1312.9,101.7,1313,118.2z"/>
	</g>
</g>
<g>
</g>
<g>
</g>
<g>
</g>
<g>
</g>
<g>
</g>
<g>
</g>
</svg>
