<?xml version="1.0" encoding="utf-8"?>
<!-- Generator: Adobe Illustrator 25.2.0, SVG Export Plug-In . SVG Version: 6.00 Build 0)  -->
<svg version="1.1" id="Layer_1" xmlns="http://www.w3.org/2000/svg" xmlns:xlink="http://www.w3.org/1999/xlink" x="0px" y="0px"
	 viewBox="0 0 512 512" style="enable-background:new 0 0 512 512;" xml:space="preserve">
<g>
	<g>
		<path d="M139.1,219.7c-12.4,0.3-23.4,3.3-32.5,11.5c-9.8,9-15,20.1-14.9,33.3c0.1,12.5-0.9,25.4,1.6,37.4
			c5.7,27.5,32.7,38.5,58.7,33.6c6.7-1.3,7.8-6.6,7.8-12.6c-0.1-31.5-0.2-63,0-94.5c0.4-66.4,66.7-112.2,129.2-89.4
			c37.7,13.8,62.8,49.1,63,89.4c0.2,31.3,0,62.5,0.1,93.8c0,10.7,3.3,13.7,14.1,14c12.8,0.3,25.1-0.6,35.8-8.8
			c12-9.1,17.9-21.1,18.2-36c0.2-9,0.1-18,0-27c-0.2-23.9-18.1-42.9-42-44.5c-1.6-0.1-3.3-0.3-5.4-0.5c-4.1-34.3-19.1-62.6-47-83.5
			c-20.6-15.4-43.9-23.1-69.6-23.1c-30.4,0-57.1,10.3-79.6,30.8C154.5,164.2,142.6,189.9,139.1,219.7z"/>
		<path d="M256,380.4c-4.5,0-9-0.2-13.5,0c-11.2,0.6-19.8,9.5-19.8,20.2c0,10.4,8.3,19.6,19.1,20.2c9.4,0.5,19,0.5,28.4,0
			c10.7-0.6,19.1-9.8,19.1-20.2c0-10.7-8.6-19.6-19.8-20.2C265,380.2,260.5,380.4,256,380.4z"/>
		<path d="M211.1,405.8c0-3.6,0-6.8,0-9.8c-8.3-1.3-16.6-1.8-24.4-4.1c-18.4-5.4-30.9-17.7-37.6-35.7c-3.3-8.8-3.1-8.8-12.8-7.6
			C134.4,378.8,173.6,409.1,211.1,405.8z"/>
	</g>
</g>
<g>
</g>
<g>
</g>
<g>
</g>
<g>
</g>
<g>
</g>
<g>
</g>
</svg>
