<?xml version="1.0" encoding="utf-8"?>
<!-- Generator: Adobe Illustrator 25.2.0, SVG Export Plug-In . SVG Version: 6.00 Build 0)  -->
<svg version="1.1" id="Layer_1" xmlns="http://www.w3.org/2000/svg" xmlns:xlink="http://www.w3.org/1999/xlink" x="0px" y="0px"
	 viewBox="0 0 512 512" style="enable-background:new 0 0 512 512;" xml:space="preserve">
<style type="text/css">
	.st0{fill:#FFFFFF;}
</style>
<g>
	<g>
		<path d="M266.8,57.8C157,57.8,68.3,146.2,68.4,255.5c0.1,108.7,89,196.9,198.5,196.9c109.8,0,198.5-88.4,198.4-197.8
			C465.2,146,376.3,57.8,266.8,57.8z M92.2,266.8c22.9,0,44.6-0.1,66.3,0.2c1.4,0,3.8,2.5,4,4.1c2.5,21.2,4.7,42.5,6.8,63.8
			c0.2,1.8-1.2,4.8-2.5,5.4c-14,5.4-28.2,10.5-42.6,15.7C105.3,329.4,94.5,300.4,92.2,266.8z M372.6,267.4c22.6,0,45.3,0,68.9,0
			c-2.5,33.1-13.2,62.3-32,88.6c-14.3-5.2-28-10.1-41.5-15.4c-1.7-0.7-3.8-3.7-3.6-5.5C366.9,312.8,369.8,290.5,372.6,267.4z
			 M124.2,154.2c14.4,5.3,28.2,10.1,41.6,15.5c1.8,0.7,3.4,4.8,3.2,7.2c-1.8,19.9-4.4,39.7-6,59.6c-0.5,5.8-2.5,7.2-7.8,7.1
			c-13.7-0.3-27.5-0.1-41.2-0.1c-7,0-14.1,0-21.7,0C94.6,209.6,105.4,180.4,124.2,154.2z M441.4,242.7c-23.9,0-46.8,0-68.7,0
			c-2.9-23-5.7-45-8.2-67.1c-0.2-1.9,1.5-5.2,3.1-5.8c13.8-5.4,27.7-10.3,42-15.5C428.4,180.8,439.3,209.9,441.4,242.7z
			 M255.2,324.7c-21.3,2.7-41.7,5.3-63.6,8.1c-2.1-21.5-4.3-43.3-6.6-66.1c23.2,0,44.3-0.1,65.4,0.2c1.6,0,4.5,2.8,4.6,4.3
			C255.3,289.2,255.2,307.1,255.2,324.7z M279.1,324.8c0-19.3,0-38.3,0-57.4c23.1,0,45.5,0,69.6,0c-2.3,22.4-4.5,44.1-6.6,65.5
			C320.3,330.1,300,327.5,279.1,324.8z M184.9,243.4c2.4-23.1,4.6-44.8,6.8-66.1c21.9,2.8,42.2,5.4,63.6,8.1
			c0,17.6,0.1,35.5-0.2,53.4c0,1.5-2.9,4.3-4.6,4.3C229.4,243.5,208.2,243.4,184.9,243.4z M342.1,177.4c2.1,21.4,4.3,43.3,6.5,65.5
			c-24.4,0-46.8,0-69.7,0c0-19.6,0-38.6,0-57.4C299.8,182.8,320.1,180.2,342.1,177.4z M254.8,429.7c-12-2.3-23.9-2.4-33.3-7.3
			c-5.5-2.9-7.7-13.3-10.2-20.7c-5.1-14.7-9.4-29.7-14.5-46.3c20.4-2.5,38.9-4.7,58-7.1C254.8,376.1,254.8,401.6,254.8,429.7z
			 M279,348.4c19.1,2.4,37.6,4.7,58.7,7.3c-8,22.9-15.2,43.8-22.6,64.7c-0.5,1.3-2.2,2.8-3.6,3.1c-10.5,2.2-21.1,4.1-32.5,6.2
			C279,401.9,279,376.1,279,348.4z M195.9,154.6c8-22.9,15.1-43.6,22.4-64.2c0.5-1.4,2-3.1,3.3-3.4c10.7-2.3,21.5-4.2,33-6.4
			c0,27.9,0,53.7,0,81.2C235.6,159.5,217.3,157.2,195.9,154.6z M337.8,154.6c-21.3,2.6-39.8,4.8-58.7,7.1c0-27.8,0-53.6,0-81.1
			c11.2,2.1,21.6,3.8,31.8,6.1c1.8,0.4,4,2.5,4.6,4.2C322.8,111.3,329.8,131.7,337.8,154.6z M188.9,410.5
			c-18.6-8.1-41.4-25.5-47.6-36.3c11-3.9,21.8-7.8,33.1-11.8c4.7,15.1,9.1,29.1,13.5,43.1C188.3,406.8,188.4,408.1,188.9,410.5z
			 M359.2,362.2c11.8,4.3,22.6,8.3,33.4,12.3c0.3,1,0.6,2,0.9,2.9c-15.5,11.4-31.1,22.8-46.6,34.2c-0.7-0.7-1.5-1.4-2.2-2.1
			C349.5,394.2,354.2,378.9,359.2,362.2z M139.7,135.3c15.3-15.3,30.4-27.1,49.7-36.1c-5.3,17.2-10,32.5-15,48.7
			C162.8,143.7,152,139.8,139.7,135.3z M359.2,148c-5.1-16.8-9.8-32.1-14.4-47.4c0.7-0.7,1.5-1.4,2.2-2
			c15.5,11.4,31.1,22.9,46.6,34.3c-0.4,1-0.7,2-1.1,3C381.8,139.8,371,143.7,359.2,148z"/>
	</g>
</g>
<g>
	<g>
		<path class="st0" d="M353.6,253.2c3.2,0,3.2-5,0-5C350.4,248.2,350.3,253.2,353.6,253.2L353.6,253.2z"/>
	</g>
</g>
<g>
</g>
<g>
</g>
<g>
</g>
<g>
</g>
<g>
</g>
<g>
</g>
</svg>
