<?xml version="1.0" encoding="utf-8"?>
<!-- Generator: Adobe Illustrator 25.2.0, SVG Export Plug-In . SVG Version: 6.00 Build 0)  -->
<svg version="1.1" id="Layer_1" xmlns="http://www.w3.org/2000/svg" xmlns:xlink="http://www.w3.org/1999/xlink" x="0px" y="0px"
	 viewBox="0 0 192.2 191.6" style="enable-background:new 0 0 192.2 191.6;" xml:space="preserve">
<g>
	<g>
		<path d="M132.1,179.6c0-1.8,0-3.2,0-4.5c0-20.1,0-40.3,0-60.4c0-11.5-7.6-19.1-19-19.1c-11.3,0-22.5,0-33.8,0
			c-11.7,0-19.3,7.5-19.3,19.2c0,20.1,0,40.3,0,60.4c0,1.3,0,2.7,0,4.4c-10.5,0-20.7,0.2-30.9-0.1c-3.4-0.1-5.1-2.9-5.1-7.1
			c0-21.9,0-43.8,0-65.7c0-1.5,0-3,0-4.5c-0.1-4.1-2.5-6.7-6.1-6.6c-3.6,0-5.9,2.6-5.9,6.8c0,20.5,0,41,0,61.6c0,3.4-0.1,6.8,0,10.1
			c0.2,9.5,8,17.5,17.5,17.6c44.4,0.1,88.8,0.1,133.2,0c9.8,0,17.4-8.3,17.4-18.4c0-29.3,0-58.6,0-87.8c0-1.4,0-2.7,0-4.5
			c0.8,0.5,1.3,0.7,1.8,1c3.6,2.4,6.8,2.1,9-0.7c2.1-2.8,1.6-6.2-1.6-8.9c-6-5.1-12.1-10.1-18.2-15.1c-1.1-0.9-2-2-3.2-2.6
			c-7.6-4.2-10.3-10.5-8.9-18.9c0.5-2.9,0.2-6,0.1-9c-0.1-3.7-2.7-6.3-6.1-6.2c-3.3,0.1-5.7,2.5-5.8,6.1c-0.1,3.2,0,6.4,0,10.5
			c-6.5-5.4-12.4-10.3-18.3-15.2c-6.6-5.5-13.2-11.1-19.9-16.6c-8.6-7.1-17.2-7.1-25.7,0C56.5,27.6,29.8,49.9,3.1,72.1
			c-3.4,2.8-4,6.2-1.8,9.1c2.4,3,6,3,9.5,0C37.6,59,64.3,36.8,91,14.5c4.1-3.4,6.1-3.4,10.2,0c21.7,18.1,43.5,36.1,65.1,54.3
			c1,0.8,1.7,2.5,1.8,3.7c0.1,33.4,0.1,66.8,0.1,100.2c0,4.1-2.1,6.7-5.9,6.8C152.4,179.7,142.5,179.6,132.1,179.6z M120.1,179.4
			c-16.3,0-32.1,0-48,0c0-22.1,0-44,0-65.9c0-3.8,2.6-5.9,6.7-5.9c11.5,0,23,0,34.5,0c4.4,0,6.7,2.3,6.8,6.7c0.1,6,0,12,0,18
			C120.1,147.9,120.1,163.5,120.1,179.4z"/>
		<path d="M96.1,143.7c0.1-3.2-2.5-6-5.8-6.1c-3.4-0.1-6.2,2.6-6.2,6c0,3.2,2.7,5.9,5.9,5.9C93.3,149.6,96,146.9,96.1,143.7z"/>
	</g>
</g>
<g>
</g>
<g>
</g>
<g>
</g>
<g>
</g>
<g>
</g>
<g>
</g>
</svg>
