<?xml version="1.0" encoding="utf-8"?>
<!-- Generator: Adobe Illustrator 25.2.0, SVG Export Plug-In . SVG Version: 6.00 Build 0)  -->
<svg version="1.1" id="Layer_1" xmlns="http://www.w3.org/2000/svg" xmlns:xlink="http://www.w3.org/1999/xlink" x="0px" y="0px"
	 viewBox="0 0 192.2 191.6" style="enable-background:new 0 0 192.2 191.6;" xml:space="preserve">
<g>
	<g>
		<path d="M356.2,185c0-1.8,0-3.2,0-4.5c0-20.1,0-40.3,0-60.4c0-11.5-7.6-19.1-19-19.1c-11.3,0-22.5,0-33.8,0
			c-11.7,0-19.3,7.5-19.3,19.2c0,20.1,0,40.3,0,60.4c0,1.3,0,2.7,0,4.4c-10.5,0-20.7,0.2-30.9-0.1c-3.4-0.1-5.1-2.9-5.1-7.1
			c0-21.9,0-43.8,0-65.7c0-1.5,0-3,0-4.5c-0.1-4.1-2.5-6.7-6.1-6.6c-3.6,0-5.9,2.6-5.9,6.8c0,20.5,0,41,0,61.6c0,3.4-0.1,6.8,0,10.1
			c0.2,9.5,8,17.5,17.5,17.6c44.4,0.1,88.8,0.1,133.2,0c9.8,0,17.4-8.3,17.4-18.4c0-29.3,0-58.6,0-87.8c0-1.4,0-2.7,0-4.5
			c0.8,0.5,1.3,0.7,1.8,1c3.6,2.4,6.8,2.1,9-0.7c2.1-2.8,1.6-6.2-1.6-8.9c-6-5.1-12.1-10.1-18.2-15.1c-1.1-0.9-2-2-3.2-2.6
			c-7.6-4.2-10.3-10.5-8.9-18.9c0.5-2.9,0.2-6,0.1-9c-0.1-3.7-2.7-6.3-6.1-6.2c-3.3,0.1-5.7,2.5-5.8,6.1c-0.1,3.2,0,6.4,0,10.5
			c-6.5-5.4-12.4-10.3-18.3-15.2c-6.6-5.5-13.2-11.1-19.9-16.6c-8.6-7.1-17.2-7.1-25.7,0c-26.7,22.2-53.4,44.5-80.1,66.8
			c-3.4,2.8-4,6.2-1.8,9.1c2.4,3,6,3,9.5,0c26.7-22.2,53.4-44.5,80.1-66.7c4.1-3.4,6.1-3.4,10.2,0c21.7,18.1,43.5,36.1,65.1,54.3
			c1,0.8,1.7,2.5,1.8,3.7c0.1,33.4,0.1,66.8,0.1,100.2c0,4.1-2.1,6.7-5.9,6.8C376.5,185.1,366.6,185,356.2,185z M344.2,184.8
			c-16.3,0-32.1,0-48,0c0-22.1,0-44,0-65.9c0-3.8,2.6-5.9,6.7-5.9c11.5,0,23,0,34.5,0c4.4,0,6.7,2.3,6.8,6.7c0.1,6,0,12,0,18
			C344.2,153.3,344.2,168.9,344.2,184.8z"/>
		<path d="M320.2,149.1c0.1-3.2-2.5-6-5.8-6.1c-3.4-0.1-6.2,2.6-6.2,6c0,3.2,2.7,5.9,5.9,5.9C317.4,155,320.1,152.4,320.2,149.1z"/>
	</g>
</g>
<g>
	<g>
		<path d="M46.5,188.5c8.2,0,16.4,0.9,24.4-0.2c11-1.5,18.6-11.7,18.6-22.8c0-13,0-25.9,0-38.9c0-13.4-10.5-23.9-24.1-23.9
			c-12.9,0-25.7,0-38.6,0c-13.5,0-23.9,10.5-23.9,24c0,12.8,0,25.7,0,38.5C3,178.6,13.5,189,27,189.1c6.5,0,13,0,19.5,0
			C46.5,188.9,46.5,188.7,46.5,188.5z M46.3,114.2c6.4,0,12.8-0.1,19.1,0c7.3,0.1,12.6,5.2,12.6,12.4c0.1,12.8,0.1,25.7,0,38.5
			c0,7.2-5.4,12.4-12.6,12.4c-12.8,0.1-25.5,0.1-38.3,0c-7.4,0-12.6-5.3-12.7-12.8c-0.1-12.6-0.1-25.2,0-37.8
			c0-7.6,5.3-12.8,13-12.8C33.8,114.1,40,114.2,46.3,114.2z"/>
		<path d="M46.2,5.3c-8.2,0-16.4-0.9-24.4,0.2C10.5,7.1,3,17.1,3,28.5c0,13,0,25.9,0,38.9C3,80.6,13.6,91,26.9,91.1
			c12.9,0,25.7,0,38.6,0c13.7,0,24.1-10.5,24.1-24.2c0-12.7,0-25.4,0-38.2c0-13.7-10.5-24-24.3-24.1c-6.4,0-12.7,0-19.1,0
			C46.2,4.9,46.2,5.1,46.2,5.3z M46.1,16.2c6.1,0,12.3,0,18.4,0c8.5,0,13.5,5,13.6,13.3c0,12.2,0,24.5,0,36.7
			c0,8.2-5.1,13.3-13.2,13.3c-12.4,0-24.8,0-37.2,0c-8,0-13.2-5.1-13.2-13c0-12.5,0-25,0-37.5c0-7.9,5.2-12.9,13.2-13
			C33.8,16.1,40,16.2,46.1,16.2z"/>
		<path d="M101.8,48.2c0,8.1-0.9,16.4,0.2,24.4c1.5,10.8,11.6,18.5,22.6,18.5c13.2,0.1,26.5,0.1,39.7,0
			c12.8-0.1,23.4-10.6,23.5-23.4c0.1-13.2,0.1-26.4,0-39.6c-0.1-12.8-10.6-23.4-23.4-23.4c-13.2-0.1-26.5-0.1-39.7,0
			c-12.8,0.1-23.4,10.6-23.5,23.4c-0.1,6.7,0,13.4,0,20.2C101.4,48.2,101.6,48.2,101.8,48.2z M112.7,48c0-6.1,0-12.2,0-18.4
			c0-8.4,5-13.5,13.4-13.5c12.3,0,24.5,0,36.8,0c8.2,0,13.3,5.1,13.3,13.2c0,12.4,0,24.7,0,37.1c0,7.9-5.1,13.1-13,13.1
			c-12.5,0-25,0-37.5,0c-7.7,0-12.9-5.2-13-12.8C112.7,60.5,112.7,54.3,112.7,48z"/>
		<path d="M144.7,189.1c23.8,0,43.1-19.5,43.1-43.4c0-23.7-19.6-43-43.5-43c-23.8,0-43.1,19.5-43.1,43.4
			C101.2,169.8,120.8,189.1,144.7,189.1z M144.5,177.6c-17.4,0-31.7-14.2-31.8-31.6c-0.1-17.6,14.2-31.9,31.8-31.9
			c17.4,0,31.7,14.2,31.8,31.5C176.3,163.3,162,177.6,144.5,177.6z"/>
	</g>
</g>
<g>
</g>
<g>
</g>
<g>
</g>
<g>
</g>
<g>
</g>
<g>
</g>
</svg>
