<?xml version="1.0" encoding="utf-8"?>
<!-- Generator: Adobe Illustrator 25.2.0, SVG Export Plug-In . SVG Version: 6.00 Build 0)  -->
<svg version="1.1" id="Layer_1" xmlns="http://www.w3.org/2000/svg" xmlns:xlink="http://www.w3.org/1999/xlink" x="0px" y="0px"
	 viewBox="0 0 192.2 191.6" style="enable-background:new 0 0 192.2 191.6;" xml:space="preserve">
<g>
	<g>
		<path d="M356.2,185c0-1.8,0-3.2,0-4.5c0-20.1,0-40.3,0-60.4c0-11.5-7.6-19.1-19-19.1c-11.3,0-22.5,0-33.8,0
			c-11.7,0-19.3,7.5-19.3,19.2c0,20.1,0,40.3,0,60.4c0,1.3,0,2.7,0,4.4c-10.5,0-20.7,0.2-30.9-0.1c-3.4-0.1-5.1-2.9-5.1-7.1
			c0-21.9,0-43.8,0-65.7c0-1.5,0-3,0-4.5c-0.1-4.1-2.5-6.7-6.1-6.6c-3.6,0-5.9,2.6-5.9,6.8c0,20.5,0,41,0,61.6c0,3.4-0.1,6.8,0,10.1
			c0.2,9.5,8,17.5,17.5,17.6c44.4,0.1,88.8,0.1,133.2,0c9.8,0,17.4-8.3,17.4-18.4c0-29.3,0-58.6,0-87.8c0-1.4,0-2.7,0-4.5
			c0.8,0.5,1.3,0.7,1.8,1c3.6,2.4,6.8,2.1,9-0.7c2.1-2.8,1.6-6.2-1.6-8.9c-6-5.1-12.1-10.1-18.2-15.1c-1.1-0.9-2-2-3.2-2.6
			c-7.6-4.2-10.3-10.5-8.9-18.9c0.5-2.9,0.2-6,0.1-9c-0.1-3.7-2.7-6.3-6.1-6.2c-3.3,0.1-5.7,2.5-5.8,6.1c-0.1,3.2,0,6.4,0,10.5
			c-6.5-5.4-12.4-10.3-18.3-15.2c-6.6-5.5-13.2-11.1-19.9-16.6c-8.6-7.1-17.2-7.1-25.7,0c-26.7,22.2-53.4,44.5-80.1,66.8
			c-3.4,2.8-4,6.2-1.8,9.1c2.4,3,6,3,9.5,0c26.7-22.2,53.4-44.5,80.1-66.7c4.1-3.4,6.1-3.4,10.2,0c21.7,18.1,43.5,36.1,65.1,54.3
			c1,0.8,1.7,2.5,1.8,3.7c0.1,33.4,0.1,66.8,0.1,100.2c0,4.1-2.1,6.7-5.9,6.8C376.5,185.1,366.6,185,356.2,185z M344.2,184.8
			c-16.3,0-32.1,0-48,0c0-22.1,0-44,0-65.9c0-3.8,2.6-5.9,6.7-5.9c11.5,0,23,0,34.5,0c4.4,0,6.7,2.3,6.8,6.7c0.1,6,0,12,0,18
			C344.2,153.3,344.2,168.9,344.2,184.8z"/>
		<path d="M320.2,149.1c0.1-3.2-2.5-6-5.8-6.1c-3.4-0.1-6.2,2.6-6.2,6c0,3.2,2.7,5.9,5.9,5.9C317.4,155,320.1,152.4,320.2,149.1z"/>
	</g>
</g>
<g>
	<g>
		<path d="M482.2,205.8c8.2,0,16.4,0.9,24.4-0.2c11-1.5,18.6-11.7,18.6-22.8c0-13,0-25.9,0-38.9c0-13.4-10.5-23.9-24.1-23.9
			c-12.9,0-25.7,0-38.6,0c-13.5,0-23.9,10.5-23.9,24c0,12.8,0,25.7,0,38.5c0,13.4,10.6,23.8,24.1,23.9c6.5,0,13,0,19.5,0
			C482.2,206.2,482.2,206,482.2,205.8z M482,131.5c6.4,0,12.8-0.1,19.1,0c7.3,0.1,12.6,5.2,12.6,12.4c0.1,12.8,0.1,25.7,0,38.5
			c0,7.2-5.4,12.4-12.6,12.4c-12.8,0.1-25.5,0.1-38.3,0c-7.4,0-12.6-5.3-12.7-12.8c-0.1-12.6-0.1-25.2,0-37.8
			c0-7.6,5.3-12.8,13-12.8C469.4,131.4,475.7,131.5,482,131.5z"/>
		<path d="M481.9,22.6c-8.2,0-16.4-0.9-24.4,0.2c-11.3,1.6-18.8,11.6-18.8,23c0,13,0,25.9,0,38.9c0.1,13.2,10.6,23.7,23.9,23.7
			c12.9,0,25.7,0,38.6,0c13.7,0,24.1-10.5,24.1-24.2c0-12.7,0-25.4,0-38.2c0-13.7-10.5-24-24.3-24.1c-6.4,0-12.7,0-19.1,0
			C481.9,22.2,481.9,22.4,481.9,22.6z M481.8,33.5c6.1,0,12.3,0,18.4,0c8.5,0,13.5,5,13.6,13.3c0,12.2,0,24.5,0,36.7
			c0,8.2-5.1,13.3-13.2,13.3c-12.4,0-24.8,0-37.2,0c-8,0-13.2-5.1-13.2-13c0-12.5,0-25,0-37.5c0-7.9,5.2-12.9,13.2-13
			C469.5,33.4,475.6,33.5,481.8,33.5z"/>
		<path d="M537.5,65.5c0,8.1-0.9,16.4,0.2,24.4c1.5,10.8,11.6,18.5,22.6,18.5c13.2,0.1,26.5,0.1,39.7,0
			c12.8-0.1,23.4-10.6,23.5-23.4c0.1-13.2,0.1-26.4,0-39.6c-0.1-12.8-10.6-23.4-23.4-23.4c-13.2-0.1-26.5-0.1-39.7,0
			C547.5,22,537,32.6,536.9,45.3c-0.1,6.7,0,13.4,0,20.2C537.1,65.5,537.3,65.5,537.5,65.5z M548.4,65.3c0-6.1,0-12.2,0-18.4
			c0-8.4,5-13.5,13.4-13.5c12.3,0,24.5,0,36.8,0c8.2,0,13.3,5.1,13.3,13.2c0,12.4,0,24.7,0,37.1c0,7.9-5.1,13.1-13,13.1
			c-12.5,0-25,0-37.5,0c-7.7,0-12.9-5.2-13-12.8C548.3,77.8,548.4,71.6,548.4,65.3z"/>
		<path d="M580.4,206.4c23.8,0,43.1-19.5,43.1-43.4c0-23.7-19.6-43-43.5-43c-23.8,0-43.1,19.5-43.1,43.4
			C536.9,187.1,556.4,206.4,580.4,206.4z M580.2,194.9c-17.4,0-31.7-14.2-31.8-31.6c-0.1-17.6,14.2-31.9,31.8-31.9
			c17.4,0,31.7,14.2,31.8,31.5C612,180.6,597.7,194.9,580.2,194.9z"/>
	</g>
</g>
<g>
	<g>
		<path d="M96,136.6c0.9-0.2,2-0.5,3.2-0.9c24.9-8.3,49.9-16.5,74.8-24.8c5.4-1.8,6.4-3.7,4.6-9.1c-8.2-24.8-16.4-49.6-24.7-74.4
			c-1.6-5-3.7-6-8.7-4.3c-25.2,8.3-50.4,16.7-75.5,25c-4.8,1.6-5.9,3.7-4.3,8.4c8.3,25,16.7,50,24.9,75
			C91.2,134.3,92.5,136.3,96,136.6z M168,102.2c-23.3,7.7-46.1,15.2-69.1,22.8c-7.6-23-15.1-45.5-22.6-68.2
			c10.1-3.3,19.8-6.5,29.6-9.8c0.5,1.6,0.9,2.6,1.2,3.6c1.6,4.9,3.2,9.7,4.9,14.6c1.3,3.5,3.9,4.9,6.9,3.7c2.6-0.9,3.6-3.7,2.7-6.9
			c-0.3-1.1-0.7-2.3-1-3.4c-1.6-4.9-3.3-9.8-4.9-14.9c10.1-3.3,19.8-6.5,29.7-9.7C152.9,56.9,160.4,79.3,168,102.2z"/>
		<path d="M69.4,141.5c-4.2,3.1-7.7,7-9,12.3c-2.3,8.6-0.4,16.2,6.2,22.3c6.7,6.1,14.7,7.5,23.1,4.2c8.4-3.4,13-10,13.7-19
			c0.2-2.8,1.2-3.6,3.5-4.3c25.1-8.2,50.2-16.5,75.2-24.8c5.2-1.7,7.3-4.3,6-7.6c-1.2-3.3-4-4-9.2-2.3c-25.1,8.3-50.1,16.6-75.2,25
			c-2.5,0.8-4,0.6-5.7-1.6c-4.7-5.8-11.2-7.9-18.7-7.8c-4.7-14.1-9.4-28.1-14-42.1c-5.8-17.5-11.7-35.1-17.4-52.6
			c-1-3.1-2.7-5.1-5.6-6.5c-9.9-4.8-19.7-9.8-29.5-14.8c-2.7-1.4-5.3-1.7-7.5,0.9C3,25.5,4,28.9,7.9,30.9C17,35.5,26.3,40,35.4,44.7
			c1.3,0.7,2.7,2.1,3.2,3.4c10.3,30.8,20.5,61.6,30.8,92.3C69.5,140.7,69.4,141,69.4,141.5z M69.7,160.1
			c-0.1-6.2,5.2-11.7,11.5-11.9c6.4-0.1,12.1,5.4,12,11.8c0,6.2-5.5,11.6-11.8,11.7C75.2,171.7,69.8,166.4,69.7,160.1z"/>
	</g>
</g>
<g>
</g>
<g>
</g>
<g>
</g>
<g>
</g>
<g>
</g>
<g>
</g>
</svg>
